<svg width="140" height="140" viewBox="0 0 140 140" fill="none" xmlns="http://www.w3.org/2000/svg" role="img" aria-labelledby="title">
  <title id="title">PawPal logo mark for light backgrounds</title>
  <g transform="translate(-4 2) scale(0.145)">
    <path fill="#4A90D9" fill-rule="evenodd" d="M328 829c-28.2 0-51-22.8-51-51V329c0-119.3 96.7-216 216-216h39c118.7 0 215 96.3 215 215v82c0 118.7-96.3 215-215 215H379v153c0 28.2-22.8 51-51 51Zm51-307h153c62.4 0 113-50.6 113-113v-80c0-63-51-114-114-114h-38c-63 0-114 51-114 114v193Z"/>
    <circle cx="328" cy="574" r="51" fill="#F28C44"/>
    <circle cx="328" cy="778" r="51" fill="#2D3748"/>
  </g>
</svg>
